<svg width="34" height="34" viewBox="0 0 34 34" fill="none" xmlns="http://www.w3.org/2000/svg">
<path d="M19.514 26.2181L16.162 29.5702C12.9222 32.8099 7.66956 32.8099 4.42981 29.5702C1.19006 26.3304 1.19006 21.0778 4.42981 17.838L7.78187 14.486C11.0216 11.2462 16.2743 11.2462 19.514 14.486C20.0275 14.9994 20.4596 15.5634 20.8103 16.162M14.486 7.78186L17.838 4.42981C21.0778 1.19006 26.3304 1.19006 29.5702 4.42981C32.8099 7.66957 32.8099 12.9222 29.5702 16.162L26.2181 19.514C22.9784 22.7538 17.7257 22.7538 14.486 19.514C13.9725 19.0006 13.5404 18.4366 13.1897 17.838" stroke="white" stroke-width="3" stroke-linecap="round" stroke-linejoin="round"/>
</svg>
