<svg width="96" height="82" viewBox="0 0 96 82" fill="none" xmlns="http://www.w3.org/2000/svg">
<path fill-rule="evenodd" clip-rule="evenodd" d="M20 3.5C20 1.567 21.567 0 23.5 0H72.5C74.433 0 76 1.567 76 3.5C76 5.433 74.433 7 72.5 7H23.5C21.567 7 20 5.433 20 3.5Z" fill="white"/>
<path fill-rule="evenodd" clip-rule="evenodd" d="M20 23.5C20 21.567 21.567 20 23.5 20H72.5C74.433 20 76 21.567 76 23.5C76 25.433 74.433 27 72.5 27H23.5C21.567 27 20 25.433 20 23.5Z" fill="white"/>
<path fill-rule="evenodd" clip-rule="evenodd" d="M20 43.5C20 41.567 21.567 40 23.5 40H72.5C74.433 40 76 41.567 76 43.5C76 45.433 74.433 47 72.5 47H23.5C21.567 47 20 45.433 20 43.5Z" fill="white"/>
<path d="M19.6033 74.408L14.3873 67.72V81H10.2593V59.24H12.8833L20.2433 69.288L26.9313 59.24H29.4593V81H25.2673V68.456L21.2033 74.184L19.6033 74.408ZM42.7585 81.384C40.0705 81.384 37.9478 80.648 36.3905 79.176C34.8545 77.704 34.0865 75.7307 34.0865 73.256C34.0865 70.7813 34.7798 68.7973 36.1665 67.304C37.5745 65.8107 39.4838 65.064 41.8945 65.064C44.3265 65.064 46.1078 65.8747 47.2385 67.496C48.3905 69.096 48.9665 70.9947 48.9665 73.192V74.472H38.5025C38.6945 75.496 39.1638 76.3173 39.9105 76.936C40.6572 77.5333 41.6385 77.832 42.8545 77.832C43.5585 77.832 44.1878 77.7467 44.7425 77.576C45.3185 77.384 45.9798 77.1173 46.7265 76.776L47.9425 79.784C47.2172 80.3387 46.3318 80.744 45.2865 81C44.2625 81.256 43.4198 81.384 42.7585 81.384ZM45.0305 71.688C44.8172 70.6427 44.4332 69.8747 43.8785 69.384C43.3238 68.872 42.6305 68.616 41.7985 68.616C40.9452 68.616 40.2305 68.8827 39.6545 69.416C39.0785 69.928 38.7052 70.6853 38.5345 71.688H45.0305ZM56.228 67.144C56.932 66.44 57.8067 65.8853 58.852 65.48C59.9187 65.0747 60.868 64.872 61.7 64.872C63.812 64.872 65.3053 65.4907 66.18 66.728C67.076 67.9653 67.524 69.48 67.524 71.272V81H63.364V71.464C63.364 70.4827 63.1293 69.736 62.66 69.224C62.1907 68.6907 61.508 68.424 60.612 68.424C60.0147 68.424 59.3853 68.584 58.724 68.904C58.084 69.2027 57.4973 69.5547 56.964 69.96V81H52.804V65.48H54.98L56.228 67.144ZM83.0465 79.464C82.3425 80.1253 81.4785 80.648 80.4545 81.032C79.4305 81.4373 78.5025 81.64 77.6705 81.64C75.5585 81.64 74.0545 81.0213 73.1585 79.784C72.2838 78.5253 71.8465 77.0107 71.8465 75.24V65.48H76.0385V75.048C76.0385 76.0293 76.2732 76.7867 76.7425 77.32C77.2118 77.832 77.8945 78.088 78.7905 78.088C79.3452 78.088 79.9318 77.9493 80.5505 77.672C81.1692 77.3947 81.7345 77.0747 82.2465 76.712V65.48H86.4065V81H84.2305L83.0465 79.464Z" fill="white"/>
</svg>
