<svg width="36" height="33" viewBox="0 0 36 33" fill="none" xmlns="http://www.w3.org/2000/svg">
<path fill-rule="evenodd" clip-rule="evenodd" d="M0 12.7138C0 10.9845 0 10.1198 0.26288 9.43098C0.669011 8.36675 1.50961 7.52615 2.57384 7.12002C3.26269 6.85714 4.12736 6.85714 5.8567 6.85714C6.68883 6.85714 7.10489 6.85714 7.47974 6.75865C8.05774 6.60677 8.57721 6.28572 8.97155 5.83666C9.22728 5.54543 9.41335 5.1733 9.78549 4.42902L11.1155 1.76892C11.4366 1.12679 11.5971 0.805732 11.8366 0.571164C12.0484 0.363731 12.3037 0.205974 12.5839 0.10931C12.9008 0 13.2598 0 13.9777 0H22.0223C22.7402 0 23.0992 0 23.4161 0.10931C23.6963 0.205974 23.9516 0.363731 24.1634 0.571164C24.4029 0.805725 24.5634 1.12677 24.8844 1.76886L24.8845 1.7689L24.8845 1.76892L26.2145 4.42902C26.5866 5.1733 26.7727 5.54543 27.0285 5.83666C27.4228 6.28572 27.9423 6.60677 28.5203 6.75865C28.8951 6.85714 29.3112 6.85714 30.1433 6.85714C31.8726 6.85714 32.7373 6.85714 33.4262 7.12002C34.4904 7.52615 35.331 8.36675 35.7371 9.43098C36 10.1198 36 10.9845 36 12.7138V26.1714C36 28.4116 36 29.5317 35.564 30.3874C35.1805 31.14 34.5686 31.752 33.816 32.1355C32.9603 32.5714 31.8402 32.5714 29.6 32.5714H6.4C4.15979 32.5714 3.03969 32.5714 2.18404 32.1355C1.43139 31.752 0.819467 31.14 0.435974 30.3874C0 29.5317 0 28.4116 0 26.1714V12.7138ZM24.8571 19.7143C24.8571 23.5014 21.7871 26.5714 18 26.5714C14.2129 26.5714 11.1429 23.5014 11.1429 19.7143C11.1429 15.9272 14.2129 12.8571 18 12.8571C21.7871 12.8571 24.8571 15.9272 24.8571 19.7143ZM30 15.4286C31.4202 15.4286 32.5714 14.2773 32.5714 12.8572C32.5714 11.437 31.4202 10.2857 30 10.2857C28.5798 10.2857 27.4286 11.437 27.4286 12.8572C27.4286 14.2773 28.5798 15.4286 30 15.4286Z" fill="white"/>
</svg>
