<svg width="45" height="30" viewBox="0 0 45 30" fill="none" xmlns="http://www.w3.org/2000/svg">
<path d="M32.6471 7.05882L45 1.76471V27.3529L32.6471 22.0588V7.05882Z" fill="white"/>
<path fill-rule="evenodd" clip-rule="evenodd" d="M6 0C2.68629 0 0 2.68629 0 6V24C0 27.3137 2.68629 30 6 30H24C27.3137 30 30 27.3137 30 24V6C30 2.68629 27.3137 0 24 0H6ZM14.5588 21.1765C17.7263 21.1765 20.2941 18.6087 20.2941 15.4412C20.2941 12.2737 17.7263 9.70588 14.5588 9.70588C11.3913 9.70588 8.82353 12.2737 8.82353 15.4412C8.82353 18.6087 11.3913 21.1765 14.5588 21.1765Z" fill="white"/>
</svg>
